<?xml version="1.0" standalone="no"?>
<!DOCTYPE svg PUBLIC "-//W3C//DTD SVG 20010904//EN"
 "http://www.w3.org/TR/2001/REC-SVG-20010904/DTD/svg10.dtd">
<svg version="1.0" xmlns="http://www.w3.org/2000/svg"
 width="512.000000pt" height="512.000000pt" viewBox="0 0 512.000000 512.000000"
 preserveAspectRatio="xMidYMid meet">
<metadata>
Created by potrace 1.14, written by Peter Selinger 2001-2017
</metadata>
<g transform="translate(0.000000,512.000000) scale(0.100000,-0.100000)"
fill="#000000" stroke="none">
<path d="M1230 4199 c-164 -144 -312 -277 -542 -486 l-38 -34 57 -87 c103
-161 219 -345 445 -712 519 -840 733 -1165 1202 -1820 171 -239 205 -285 216
-285 4 0 36 43 72 95 35 52 124 181 197 285 426 606 656 947 961 1420 142 220
582 884 658 993 40 56 72 105 72 107 0 2 -120 114 -267 248 -148 134 -317 289
-378 345 l-110 101 -1175 1 -1175 0 -195 -171z m2030 89 c0 -3 -78 -69 -172
-146 -95 -77 -236 -192 -313 -256 -77 -63 -145 -115 -150 -116 -11 0 -618 505
-623 518 -1 4 281 7 628 7 346 0 630 -3 630 -7z m772 -264 c144 -133 277 -253
293 -267 l30 -26 -308 -1 -308 0 -51 108 c-58 125 -118 266 -158 374 l-29 77
107 3 c81 2 113 -1 134 -12 14 -8 145 -123 290 -256z m-2292 257 c0 -9 -154
-382 -203 -493 l-26 -58 -332 0 -333 0 30 31 c37 40 382 352 499 452 l89 77
138 0 c76 0 138 -4 138 -9z m53 -6 c-3 -9 -8 -14 -10 -11 -3 3 -2 9 2 15 9 16
15 13 8 -4z m1782 -329 c58 -137 105 -251 105 -255 -1 -12 -43 75 -103 209
-69 157 -157 376 -156 387 1 14 47 -88 154 -341z m-1397 87 c162 -137 309
-260 326 -275 l31 -27 -30 -2 c-42 -1 -860 2 -862 4 -2 2 22 59 139 342 76
185 86 205 95 205 3 0 138 -111 301 -247z m1231 155 c131 -321 181 -444 181
-450 0 -5 -194 -8 -431 -8 -382 0 -430 2 -419 15 7 8 105 90 218 183 113 92
250 206 306 254 56 48 103 88 106 88 3 0 20 -37 39 -82z m-1650 3 c-12 -28
-24 -50 -26 -48 -2 2 6 27 18 56 12 28 24 50 26 48 2 -2 -6 -27 -18 -56z m-45
-110 c-9 -23 -18 -40 -20 -38 -2 2 4 22 13 45 9 23 18 40 20 38 2 -2 -4 -22
-13 -45z m-45 -110 c-12 -28 -24 -50 -26 -48 -2 2 6 27 18 56 12 28 24 50 26
48 2 -2 -6 -27 -18 -56z m-38 -88 c-12 -20 -14 -14 -5 12 4 9 9 14 11 11 3 -2
0 -13 -6 -23z m-40 -90 c-12 -20 -14 -14 -5 12 4 9 9 14 11 11 3 -2 0 -13 -6
-23z m-751 -278 c628 -1021 713 -1156 905 -1450 121 -185 452 -667 545 -795
150 -206 231 -315 251 -339 13 -16 19 -35 17 -58 -3 -31 -11 -21 -158 184
-468 658 -714 1032 -1265 1923 -87 140 -213 343 -281 451 -139 220 -145 233
-119 228 11 -3 53 -60 105 -144z m720 103 c0 -31 225 -652 395 -1093 40 -104
118 -307 173 -450 55 -143 148 -383 206 -534 59 -151 105 -275 103 -277 -7 -8
-203 477 -367 912 -40 104 -100 261 -135 349 -154 391 -406 1094 -405 1129 1
12 30 -23 30 -36z m0 -198 c77 -224 248 -687 354 -956 30 -77 82 -214 116
-305 34 -90 126 -326 205 -524 79 -198 147 -371 151 -385 7 -24 6 -24 -18 5
-129 158 -633 925 -986 1500 -337 549 -522 865 -522 890 0 3 140 4 311 3 l311
-3 78 -225z m982 -1005 c2 -679 0 -1235 -3 -1235 -4 0 -37 82 -74 183 -37 100
-115 304 -172 452 -58 149 -159 412 -225 585 -66 173 -143 374 -170 445 -108
280 -278 770 -278 799 0 3 207 6 460 6 l460 0 2 -1235z m1068 1224 c0 -17 -95
-253 -220 -549 -61 -146 -157 -375 -212 -510 -55 -135 -166 -398 -245 -585
-80 -187 -179 -425 -220 -530 -41 -104 -77 -192 -79 -194 -2 -2 -4 532 -4
1187 l0 1192 490 0 c351 0 490 -3 490 -11z m730 5 c0 -12 -31 -62 -220 -349
-108 -165 -217 -331 -242 -370 -25 -38 -112 -173 -193 -300 -395 -614 -897
-1346 -912 -1331 -6 6 140 371 229 576 33 74 132 308 220 520 88 212 239 571
334 798 96 227 177 424 180 437 l6 25 299 0 c164 0 299 -3 299 -6z"/>
</g>
</svg>
